<svg xmlns="http://www.w3.org/2000/svg" xmlns:xlink="http://www.w3.org/1999/xlink" version="1.1" viewBox="715.5 0 569 294"><svg xml:space="preserve" width="2000" height="294" data-version="2" data-id="lg_iHOpr0r0GwWS7zB5Yi" viewBox="0 0 569 294" x="0" y="0"><rect width="100%" height="100%" fill="transparent"/><circle r="99.82" fill="#6e4555" transform="translate(123.98 121.4)scale(1.1786)"/><path d="M202.335 108.506q-11.99 0-21.23-1.1t-13.31-2.2v-2.2l-2.2-11.77q1.54 1.76 5.88 3.74 4.35 1.98 11.61 3.35 7.26 1.38 17.27 1.38 9.02 0 13.69-1.27 4.68-1.26 6.38-3.52 1.71-2.25 1.71-5.22 0-3.52-2.86-5.61-2.86-2.09-8.53-3.36-5.66-1.26-14.02-2.25-10.89-1.43-17.49-3.8-6.6-2.36-9.57-6.32-2.97-3.96-2.97-10.01 0-5.17 3.13-9.24 3.14-4.07 9.52-6.44 6.38-2.36 16.28-2.36 11.44 0 19.91 1.1t11.99 2.2v2.2l3.3 9.9q-2.31-1.43-7.1-2.97-4.78-1.54-11.49-2.59-6.71-1.04-14.96-1.04-6.82 0-10.84.99-4.01.99-5.72 2.91-1.7 1.93-1.7 4.68 0 3.63 2.69 5.83 2.7 2.2 7.92 3.41 5.23 1.21 12.71 2.09 11.88 1.32 18.92 3.74 7.04 2.42 10.12 6.49 3.08 4.07 3.08 10.56 0 4.29-2.04 7.75-2.03 3.47-6.1 5.94-4.07 2.48-10.07 3.74-5.99 1.27-13.91 1.27"/><rect width="68.86" height="68.2" x="-34.43" y="-34.1" fill="none" rx="0" ry="0" transform="translate(200.53 74.9)"/><path d="M260.525 108.506q-7.59 0-11-3.25-3.41-3.24-3.41-10.61v-31.02h-9.9v-7.7q5.06 0 7.92-1.27 2.86-1.26 4.07-4.45 1.21-3.19 1.21-8.91h7.92v14.63h21.01q-.77 1.1-1.49 3.24-.71 2.15-.71 4.46h-18.81v29.37q0 5.06 1.87 6.38 1.87 1.32 4.73 1.32 2.75 0 5.11-1.16 2.37-1.15 4.18-2.8 1.82-1.65 2.81-3.19v3.41l1.1 6.27q-1.1 1.1-3.41 2.36-2.31 1.27-5.61 2.09-3.3.83-7.59.83"/><rect width="42.13" height="67.21" x="-21.07" y="-33.6" fill="none" rx="0" ry="0" transform="translate(257.78 75.4)"/><path d="M306.835 108.506q-11 0-17.22-3.52-6.21-3.52-8.69-9.57-2.47-6.05-2.47-13.64 0-7.7 2.58-13.75 2.59-6.05 8.75-9.63 6.16-3.57 17.05-3.57t17.05 3.57q6.16 3.58 8.74 9.63 2.59 6.05 2.59 13.75 0 7.59-2.48 13.64-2.47 6.05-8.63 9.57-6.16 3.52-17.27 3.52m0-7.81q6.82 0 10.56-2.2t5.17-6.44q1.43-4.23 1.43-10.28 0-6.05-1.49-10.34-1.48-4.29-5.17-6.6-3.68-2.31-10.5-2.31-6.71 0-10.45 2.36-3.74 2.37-5.23 6.71-1.48 4.35-1.48 10.29 0 5.83 1.43 10.06 1.43 4.24 5.17 6.49 3.74 2.26 10.56 2.26"/><rect width="56.76" height="53.68" x="-28.38" y="-26.84" fill="none" rx="0" ry="0" transform="translate(307.33 82.17)"/><path d="M354.905 107.406h-15.62q.77 0 1.48-1.54.72-1.54.72-5.06v-37.18q0-3.52-.72-5.01-.71-1.48-1.48-1.59 4.84 0 8.41-.72 3.58-.71 5.01-1.48v5.5l-.22 1.87.22.22q1.65-2.2 4.01-3.91 2.37-1.7 5.45-2.69t7.04-.99q5.17 0 8.96 1.48 3.8 1.49 5.45 3.03l-2.2 9.24v3.3q-1.43-1.76-4.13-3.69-2.69-1.92-6.1-3.24-3.41-1.32-7.26-1.32-4.4 0-7.81 3.52-3.41 3.52-3.41 11.66v22q0 3.52.71 5.06.72 1.54 1.49 1.54"/><rect width="44.33" height="52.58" x="-22.16" y="-26.29" fill="none" rx="0" ry="0" transform="translate(361.95 81.62)"/><path d="M407.045 108.506q-11.99 0-16.83-4.35-4.84-4.34-4.84-11.71 0-5.17 2.58-8.86 2.59-3.68 7.81-5.66 5.23-1.98 13.26-1.98 5.72 0 9.95.82 4.24.83 6.93 1.93 2.7 1.1 3.8 1.87 0-6.49-1.6-10.45-1.59-3.96-5.11-5.78-3.52-1.81-9.57-1.81-6.49 0-11.61 1.48-5.11 1.49-8.19 3.19-3.08 1.71-3.85 2.48v-2.2l-1.1-8.25q.99-.44 4.29-1.49 3.3-1.04 8.69-1.98 5.39-.93 12.65-.93 9.24 0 15.12 2.58 5.89 2.59 8.69 7.92 2.81 5.34 2.81 13.48v22q0 3.08.71 4.45.72 1.38 1.49 2.15h-13.42v-3.3l.22-2.09-.22-.11q-1.76 1.65-4.18 2.86t-5.28 2.03q-2.86.83-6.22 1.27-3.35.44-6.98.44m3.63-7.81q5.94 0 10.23-1.21t6.54-3.25q2.26-2.03 2.26-4.67 0-3.3-4.35-5.61-4.34-2.31-13.47-2.31-8.47 0-11.94 2.2-3.46 2.2-3.46 6.6 0 4.29 3.35 6.27 3.36 1.98 10.84 1.98"/><rect width="57.75" height="53.68" x="-28.88" y="-26.84" fill="none" rx="0" ry="0" transform="translate(414.75 82.17)"/><path d="M474.585 134.246q-6.38 0-11.72-.88-5.33-.88-9.24-2.15-3.9-1.26-5.99-2.47l2.2-9.9v-3.19q1.54 2.31 4.84 4.84t8.25 4.29q4.95 1.76 11.22 1.76 7.37 0 10.94-2.42 3.58-2.42 4.73-6.71 1.16-4.29 1.16-9.79v-4.07l.22-1.98-.22-.22q-1.43 1.87-3.96 3.52-2.53 1.65-6.05 2.64-3.52.99-7.92.99-10.45 0-16.23-3.52-5.77-3.52-8.03-9.57-2.25-6.05-2.25-13.64 0-7.7 2.25-13.75 2.26-6.05 8.03-9.63 5.78-3.57 16.23-3.57 4.4 0 7.81.82 3.41.83 5.94 2.2 2.53 1.38 4.18 3.25l.22-.11-.22-2.09v-2.97h13.42q-.77.11-1.49 1.65-.71 1.54-.71 5.17v42.13q0 15.95-6.77 22.66-6.76 6.71-20.84 6.71m-.77-33.55q6.82 0 10.56-2.15 3.74-2.14 5.17-6.38 1.43-4.23 1.43-10.39 0-6.05-1.49-10.34-1.48-4.29-5.17-6.6-3.68-2.31-10.5-2.31-6.16 0-9.68 2.36-3.52 2.37-5.01 6.71-1.48 4.35-1.48 10.29 0 5.83 1.43 10.06 1.43 4.24 5 6.49 3.58 2.26 9.74 2.26"/><rect width="57.86" height="79.42" x="-28.93" y="-39.71" fill="none" rx="0" ry="0" transform="translate(475.96 95.04)"/><path d="M537.725 108.506q-8.69 0-14.3-2.04-5.61-2.03-8.8-5.66-3.19-3.63-4.46-8.47-1.26-4.84-1.26-10.56 0-12.43 7.09-19.69 7.1-7.26 21.07-7.26 8.14 0 13.14 2.2 5.01 2.2 7.59 5.83 2.59 3.63 3.52 7.86.94 4.24.94 8.31v5.17q0-.33-3.03-.72-3.02-.38-10.17-.38h-28.93q0 8.14 4.84 12.87 4.84 4.73 14.41 4.73 8.25 0 13.58-2.04 5.34-2.03 7.1-4.01v2.2l1.1 7.26q-2.42 1.43-8.53 2.91-6.1 1.49-14.9 1.49m-13.2-32.67h26.73q0-2.86-1.21-5.94-1.21-3.08-4.29-5.23-3.08-2.14-8.69-2.14-4.73 0-8.25 1.59-3.52 1.6-5.45 4.13-1.92 2.53-1.92 5.39 0 1.1.66 1.65.66.55 2.42.55"/><rect width="53.35" height="53.68" x="-26.68" y="-26.84" fill="none" rx="0" ry="0" transform="translate(536.08 82.17)"/><path d="M184.735 204.356h-16.94q.77 0 1.54-1.54t.77-5.06v-52.8q0-3.52-.77-5-.77-1.49-1.54-1.6h16.94q-.77 0-1.54 1.54t-.77 5.17v17.93q0 2.42.6 2.86.61.44 3.91.44h32.89q3.3 0 3.85-.38.55-.39.55-2.92v-18.04q0-3.52-.77-5-.77-1.49-1.54-1.6h16.94q-.77 0-1.54 1.54t-.77 5.17v52.69q0 3.52.77 5.06.77 1.54 1.54 1.54h-16.94q.77 0 1.54-1.54t.77-5.06v-19.36q0-2.53-.61-2.91-.6-.39-3.79-.39h-32.89q-3.3 0-3.91.44-.6.44-.6 2.86v19.36q0 3.52.77 5.06.77 1.54 1.54 1.54"/><rect width="71.06" height="66" x="-35.53" y="-33" fill="none" rx="0" ry="0" transform="translate(203.82 171.86)"/><path d="M268.995 205.456q-6.38 0-11.17-2.25-4.78-2.26-7.37-7.81-2.58-5.56-2.58-15.46v-20.46q0-3.52-.72-5.06-.71-1.54-1.48-1.54h15.73q-.77 0-1.6 1.54-.82 1.54-.82 5.06v22q0 9.35 3.3 12.76t8.69 3.41q5.39 0 9.35-2.64t6.21-7.26q2.26-4.62 2.26-10.45v-17.82q0-3.52-.72-5-.71-1.49-1.48-1.6h13.42v44.88q0 3.52.71 5.06.72 1.54 1.49 1.54h-13.42v-6.6l.22-2.2-.22-.22q-.66 1.32-2.2 3.03-1.54 1.7-4.02 3.35-2.47 1.65-5.88 2.7-3.41 1.04-7.7 1.04"/><rect width="56.54" height="52.58" x="-28.27" y="-26.29" fill="none" rx="0" ry="0" transform="translate(274.44 179.67)"/><path d="M337.415 205.456q-6.05 0-10.18-1.43-4.12-1.43-6.98-3.96l-.22.11.22 2.09v2.09h-13.42q.77 0 1.48-1.54.72-1.54.72-5.06v-62.7q0-3.52-.72-5-.71-1.49-1.48-1.6h13.42v26.62l-.22 2.09.22.22q1.43-1.43 3.9-2.69 2.48-1.27 5.89-2.09 3.41-.83 7.37-.83 10.23 0 16.17 3.58 5.94 3.57 8.52 9.62 2.59 6.05 2.59 13.75 0 7.59-2.53 13.64-2.53 6.05-8.47 9.57-5.94 3.52-16.28 3.52m-1.1-7.81q6.82 0 10.56-2.2t5.17-6.43q1.43-4.24 1.43-10.29 0-6.05-1.49-10.34-1.48-4.29-5.17-6.6-3.68-2.31-10.5-2.31-6.6 0-10.07 2.59-3.46 2.58-4.73 6.98-1.26 4.4-1.26 9.68 0 8.69 3.41 13.81 3.41 5.11 12.65 5.11"/><rect width="57.86" height="77" x="-28.93" y="-38.5" fill="none" rx="0" ry="0" transform="translate(336.26 167.46)"/><path d="M542.299 212.265a5.754 5.754 0 0 0-3.048-7.545l-.457-.193a5.755 5.755 0 0 0-3.391-6.44l-72.13-30.617-7.026-21.941-.03-.005a5.732 5.732 0 0 0-3.106-3.201l-35.21-14.946a5.754 5.754 0 0 0-7.542 3.049l-40.395 95.163-.005.007a5.752 5.752 0 0 0 3.046 7.544l124.997 53.058a5.754 5.754 0 0 0 7.544-3.048l.015-.036zm-119.827 36.872-47.669-20.234a1.15 1.15 0 0 1-.645-1.406l36.689-70.774a4.56 4.56 0 0 0 .151-.32 1.15 1.15 0 0 1 1.505-.612l1.018.432 123.581 52.584.35.149c.551.234.826.848.649 1.407l-9.143 17.632-27.5 53.034a4.56 4.56 0 0 0-.152.32 1.153 1.153 0 0 1-1.509.61z"/></svg></svg>